<svg version="1.1" xmlns="http://www.w3.org/2000/svg" xmlns:xlink="http://www.w3.org/1999/xlink" x="0px" y="0px" viewBox="0 0 1000 1000" enable-background="new 0 0 1000 1000" xml:space="preserve">
<g><path d="M737.3,363.7c-25.3,0-45.8,20.5-45.8,45.8c0,25.3,20.5,45.8,45.8,45.8c25.3,0,45.8-20.5,45.8-45.8C783.1,384.2,762.6,363.7,737.3,363.7z M162.8,389.2c0,0,109.6-123.9,349-148.2C751.2,216.8,921,386.7,981.4,475.4c39.8,58.4-71.2,95.5-74.6,98.2c-22.9,17.8,107.2,34.1,25.6,95.6c0,0-32.5,29.9-87.3,56.5c-82.5,40.1-121.9,49.2-121.9,49.2s-116-81.3-106-261.5c0,0-22.2,183.4,72,267.5c0,0-219.3,47.7-362-16.4l-75.6,15l25.1-43.3c0,0-108.2-71-114.1-84.8L10,778.8c0,0,5.6-69.2,19.8-137.9c1.3-6.4,4.9-22,5.2-23.4c0.9-3.8,1.9-7.6,2.9-11.4c10.5-40.3,24.4-76,42.4-91.6c0,0-60.3-70.9-70.3-285.6L162.8,389.2z"/><path d="M561.2,222.6c0,0-275.8-72.8-415.2,55.2l61.9,51.1C208,328.9,349,212.6,561.2,222.6z"/></g>
</svg>